<mxfile host="app.diagrams.net" modified="2022-12-05T13:29:57.057Z" agent="5.0 (Windows NT 10.0; Win64; x64) AppleWebKit/537.36 (KHTML, like Gecko) Chrome/107.0.0.0 Safari/537.36" etag="73T-vsEpdyaZRPMlpx7U" version="20.6.0" type="github">
  <diagram id="74D6_gMi5fqp9DpV0goa" name="Page-1">
    <mxGraphModel dx="2430" dy="1938" grid="1" gridSize="10" guides="1" tooltips="1" connect="1" arrows="1" fold="1" page="1" pageScale="1" pageWidth="850" pageHeight="1100" math="0" shadow="0">
      <root>
        <mxCell id="0" />
        <mxCell id="1" parent="0" />
        <mxCell id="NQtm4PZffcuobZTqlJQv-1" value="" style="verticalLabelPosition=bottom;verticalAlign=top;html=1;shadow=0;dashed=0;strokeWidth=1;shape=mxgraph.android.phone2;strokeColor=#000000;" parent="1" vertex="1">
          <mxGeometry x="-110" y="110" width="200" height="390" as="geometry" />
        </mxCell>
        <mxCell id="NQtm4PZffcuobZTqlJQv-3" value="LOGIN ACCOUNT&lt;br&gt;" style="text;html=1;align=center;verticalAlign=middle;resizable=0;points=[];autosize=1;strokeColor=none;fillColor=none;" parent="1" vertex="1">
          <mxGeometry x="-99" y="246" width="120" height="30" as="geometry" />
        </mxCell>
        <mxCell id="NQtm4PZffcuobZTqlJQv-4" value="" style="ellipse;whiteSpace=wrap;html=1;aspect=fixed;strokeColor=#000000;" parent="1" vertex="1">
          <mxGeometry x="-33" y="160" width="60" height="60" as="geometry" />
        </mxCell>
        <mxCell id="NQtm4PZffcuobZTqlJQv-19" style="edgeStyle=orthogonalEdgeStyle;rounded=0;orthogonalLoop=1;jettySize=auto;html=1;endArrow=classic;endFill=1;startArrow=block;startFill=1;" parent="1" target="NQtm4PZffcuobZTqlJQv-18" edge="1">
          <mxGeometry relative="1" as="geometry">
            <mxPoint x="90" y="378" as="sourcePoint" />
            <Array as="points">
              <mxPoint x="230" y="378" />
              <mxPoint x="230" y="378" />
            </Array>
          </mxGeometry>
        </mxCell>
        <mxCell id="NQtm4PZffcuobZTqlJQv-5" value="" style="rounded=1;whiteSpace=wrap;html=1;strokeColor=#000000;" parent="1" vertex="1">
          <mxGeometry x="-85" y="280" width="149" height="30" as="geometry" />
        </mxCell>
        <mxCell id="NQtm4PZffcuobZTqlJQv-6" value="" style="rounded=1;whiteSpace=wrap;html=1;strokeColor=#000000;" parent="1" vertex="1">
          <mxGeometry x="-85" y="327" width="149" height="30" as="geometry" />
        </mxCell>
        <mxCell id="NQtm4PZffcuobZTqlJQv-7" value="Login Ui" style="text;html=1;align=center;verticalAlign=middle;resizable=0;points=[];autosize=1;strokeColor=none;fillColor=none;" parent="1" vertex="1">
          <mxGeometry x="-35" y="65" width="70" height="30" as="geometry" />
        </mxCell>
        <mxCell id="NQtm4PZffcuobZTqlJQv-47" style="edgeStyle=orthogonalEdgeStyle;rounded=0;jumpStyle=none;orthogonalLoop=1;jettySize=auto;html=1;exitX=0;exitY=0.5;exitDx=0;exitDy=0;entryX=0.503;entryY=0.005;entryDx=0;entryDy=0;entryPerimeter=0;fontFamily=Helvetica;fontColor=#000000;endArrow=classic;endFill=1;" parent="1" source="NQtm4PZffcuobZTqlJQv-8" target="NQtm4PZffcuobZTqlJQv-45" edge="1">
          <mxGeometry relative="1" as="geometry" />
        </mxCell>
        <mxCell id="NQtm4PZffcuobZTqlJQv-8" value="LOGIN" style="rounded=1;html=1;shadow=0;dashed=0;whiteSpace=wrap;fontSize=10;fillColor=#dae8fc;align=center;strokeColor=#6c8ebf;strokeWidth=2;" parent="1" vertex="1">
          <mxGeometry x="-76" y="370" width="60" height="16.88" as="geometry" />
        </mxCell>
        <mxCell id="NQtm4PZffcuobZTqlJQv-9" value="REISGTER" style="rounded=1;html=1;shadow=0;dashed=0;whiteSpace=wrap;fontSize=10;fillColor=#dae8fc;align=center;strokeColor=#6c8ebf;strokeWidth=2;" parent="1" vertex="1">
          <mxGeometry x="-3" y="370" width="60" height="16.88" as="geometry" />
        </mxCell>
        <mxCell id="NQtm4PZffcuobZTqlJQv-16" style="edgeStyle=orthogonalEdgeStyle;rounded=0;orthogonalLoop=1;jettySize=auto;html=1;exitX=0;exitY=0.5;exitDx=0;exitDy=0;exitPerimeter=0;entryX=0;entryY=0.5;entryDx=0;entryDy=0;endArrow=classic;endFill=1;" parent="1" source="NQtm4PZffcuobZTqlJQv-10" target="NQtm4PZffcuobZTqlJQv-5" edge="1">
          <mxGeometry relative="1" as="geometry">
            <Array as="points">
              <mxPoint x="-200" />
              <mxPoint x="-200" y="295" />
            </Array>
          </mxGeometry>
        </mxCell>
        <mxCell id="NQtm4PZffcuobZTqlJQv-17" style="edgeStyle=orthogonalEdgeStyle;rounded=0;orthogonalLoop=1;jettySize=auto;html=1;exitX=0;exitY=0.5;exitDx=0;exitDy=0;exitPerimeter=0;entryX=0;entryY=0.5;entryDx=0;entryDy=0;endArrow=classic;endFill=1;" parent="1" source="NQtm4PZffcuobZTqlJQv-10" target="NQtm4PZffcuobZTqlJQv-6" edge="1">
          <mxGeometry relative="1" as="geometry">
            <Array as="points">
              <mxPoint x="-200" />
              <mxPoint x="-200" y="342" />
            </Array>
          </mxGeometry>
        </mxCell>
        <mxCell id="NQtm4PZffcuobZTqlJQv-10" value="" style="shape=cylinder3;whiteSpace=wrap;html=1;boundedLbl=1;backgroundOutline=1;size=15;strokeColor=#d6b656;fillColor=#FFFF33;" parent="1" vertex="1">
          <mxGeometry x="100" y="-40" width="60" height="80" as="geometry" />
        </mxCell>
        <mxCell id="NQtm4PZffcuobZTqlJQv-15" value="Profiles DB" style="text;html=1;align=center;verticalAlign=middle;resizable=0;points=[];autosize=1;strokeColor=none;fillColor=none;" parent="1" vertex="1">
          <mxGeometry x="90" y="1" width="80" height="30" as="geometry" />
        </mxCell>
        <mxCell id="NQtm4PZffcuobZTqlJQv-18" value="" style="verticalLabelPosition=bottom;verticalAlign=top;html=1;shadow=0;dashed=0;strokeWidth=1;shape=mxgraph.android.phone2;strokeColor=#000000;" parent="1" vertex="1">
          <mxGeometry x="370" y="10" width="200" height="450" as="geometry" />
        </mxCell>
        <mxCell id="NQtm4PZffcuobZTqlJQv-20" value="Push" style="text;html=1;align=center;verticalAlign=middle;resizable=0;points=[];autosize=1;strokeColor=none;fillColor=none;" parent="1" vertex="1">
          <mxGeometry x="170" y="380" width="50" height="30" as="geometry" />
        </mxCell>
        <mxCell id="NQtm4PZffcuobZTqlJQv-22" value="Call" style="text;html=1;align=center;verticalAlign=middle;resizable=0;points=[];autosize=1;strokeColor=none;fillColor=none;" parent="1" vertex="1">
          <mxGeometry x="-150" y="1" width="40" height="30" as="geometry" />
        </mxCell>
        <mxCell id="NQtm4PZffcuobZTqlJQv-23" value="REGISTER ACCOUNT" style="text;html=1;align=center;verticalAlign=middle;resizable=0;points=[];autosize=1;strokeColor=none;fillColor=none;" parent="1" vertex="1">
          <mxGeometry x="375" y="114" width="150" height="30" as="geometry" />
        </mxCell>
        <mxCell id="NQtm4PZffcuobZTqlJQv-33" style="edgeStyle=orthogonalEdgeStyle;rounded=0;orthogonalLoop=1;jettySize=auto;html=1;exitX=0;exitY=0.5;exitDx=0;exitDy=0;entryX=1;entryY=0.5;entryDx=0;entryDy=0;entryPerimeter=0;endArrow=classic;endFill=1;" parent="1" source="NQtm4PZffcuobZTqlJQv-24" target="NQtm4PZffcuobZTqlJQv-10" edge="1">
          <mxGeometry relative="1" as="geometry" />
        </mxCell>
        <mxCell id="NQtm4PZffcuobZTqlJQv-24" value="" style="rounded=1;whiteSpace=wrap;html=1;strokeColor=#000000;" parent="1" vertex="1">
          <mxGeometry x="395.5" y="140" width="149" height="30" as="geometry" />
        </mxCell>
        <mxCell id="NQtm4PZffcuobZTqlJQv-34" style="edgeStyle=orthogonalEdgeStyle;rounded=0;orthogonalLoop=1;jettySize=auto;html=1;exitX=0;exitY=0.5;exitDx=0;exitDy=0;entryX=1;entryY=0.5;entryDx=0;entryDy=0;entryPerimeter=0;endArrow=classic;endFill=1;" parent="1" source="NQtm4PZffcuobZTqlJQv-26" target="NQtm4PZffcuobZTqlJQv-10" edge="1">
          <mxGeometry relative="1" as="geometry" />
        </mxCell>
        <mxCell id="NQtm4PZffcuobZTqlJQv-26" value="" style="rounded=1;whiteSpace=wrap;html=1;strokeColor=#000000;" parent="1" vertex="1">
          <mxGeometry x="395.5" y="180" width="149" height="30" as="geometry" />
        </mxCell>
        <mxCell id="NQtm4PZffcuobZTqlJQv-43" style="edgeStyle=orthogonalEdgeStyle;rounded=0;jumpStyle=none;orthogonalLoop=1;jettySize=auto;html=1;exitX=0;exitY=0.5;exitDx=0;exitDy=0;entryX=1;entryY=0.5;entryDx=0;entryDy=0;entryPerimeter=0;fontFamily=Helvetica;fontColor=#000000;endArrow=classic;endFill=1;" parent="1" source="NQtm4PZffcuobZTqlJQv-27" target="NQtm4PZffcuobZTqlJQv-10" edge="1">
          <mxGeometry relative="1" as="geometry" />
        </mxCell>
        <mxCell id="NQtm4PZffcuobZTqlJQv-27" value="" style="rounded=1;whiteSpace=wrap;html=1;strokeColor=#000000;" parent="1" vertex="1">
          <mxGeometry x="395.5" y="220" width="149" height="30" as="geometry" />
        </mxCell>
        <mxCell id="NQtm4PZffcuobZTqlJQv-35" style="edgeStyle=orthogonalEdgeStyle;rounded=0;orthogonalLoop=1;jettySize=auto;html=1;exitX=0;exitY=0.5;exitDx=0;exitDy=0;entryX=1;entryY=0.5;entryDx=0;entryDy=0;entryPerimeter=0;endArrow=classic;endFill=1;" parent="1" source="NQtm4PZffcuobZTqlJQv-28" target="NQtm4PZffcuobZTqlJQv-10" edge="1">
          <mxGeometry relative="1" as="geometry" />
        </mxCell>
        <mxCell id="NQtm4PZffcuobZTqlJQv-28" value="" style="rounded=1;whiteSpace=wrap;html=1;strokeColor=#000000;" parent="1" vertex="1">
          <mxGeometry x="396.5" y="260" width="149" height="30" as="geometry" />
        </mxCell>
        <mxCell id="NQtm4PZffcuobZTqlJQv-38" style="edgeStyle=orthogonalEdgeStyle;rounded=0;orthogonalLoop=1;jettySize=auto;html=1;exitX=0;exitY=0.5;exitDx=0;exitDy=0;entryX=1;entryY=0.5;entryDx=0;entryDy=0;entryPerimeter=0;endArrow=classic;endFill=1;" parent="1" source="NQtm4PZffcuobZTqlJQv-29" target="NQtm4PZffcuobZTqlJQv-10" edge="1">
          <mxGeometry relative="1" as="geometry" />
        </mxCell>
        <mxCell id="NQtm4PZffcuobZTqlJQv-29" value="" style="rounded=1;whiteSpace=wrap;html=1;strokeColor=#000000;" parent="1" vertex="1">
          <mxGeometry x="395.5" y="300" width="149" height="30" as="geometry" />
        </mxCell>
        <mxCell id="NQtm4PZffcuobZTqlJQv-30" value="REISGTER" style="rounded=1;html=1;shadow=0;dashed=0;whiteSpace=wrap;fontSize=10;fillColor=#dae8fc;align=center;strokeColor=#6c8ebf;strokeWidth=2;" parent="1" vertex="1">
          <mxGeometry x="403.5" y="353.12" width="60" height="16.88" as="geometry" />
        </mxCell>
        <mxCell id="NQtm4PZffcuobZTqlJQv-31" value="CANCEL" style="rounded=1;html=1;shadow=0;dashed=0;whiteSpace=wrap;fontSize=10;fillColor=#dae8fc;align=center;strokeColor=#6c8ebf;strokeWidth=2;" parent="1" vertex="1">
          <mxGeometry x="476.5" y="353.12" width="60" height="16.88" as="geometry" />
        </mxCell>
        <mxCell id="NQtm4PZffcuobZTqlJQv-32" value="Register Ui" style="text;html=1;align=center;verticalAlign=middle;resizable=0;points=[];autosize=1;strokeColor=none;fillColor=none;" parent="1" vertex="1">
          <mxGeometry x="410" y="-30" width="80" height="30" as="geometry" />
        </mxCell>
        <mxCell id="NQtm4PZffcuobZTqlJQv-39" value="&lt;span style=&quot;text-align: start;&quot;&gt;collection&lt;/span&gt;" style="text;html=1;align=center;verticalAlign=middle;resizable=0;points=[];autosize=1;strokeColor=none;fillColor=none;" parent="1" vertex="1">
          <mxGeometry x="287" y="242" width="70" height="30" as="geometry" />
        </mxCell>
        <mxCell id="NQtm4PZffcuobZTqlJQv-51" value="" style="rounded=0;whiteSpace=wrap;html=1;labelBackgroundColor=none;fontFamily=Helvetica;" parent="1" vertex="1">
          <mxGeometry x="-508" y="616" width="120" height="334" as="geometry" />
        </mxCell>
        <mxCell id="NQtm4PZffcuobZTqlJQv-52" value="" style="rounded=0;whiteSpace=wrap;html=1;labelBackgroundColor=none;strokeColor=#6c8ebf;fontFamily=Helvetica;fillColor=#dae8fc;" parent="1" vertex="1">
          <mxGeometry x="-508" y="616" width="120" height="60" as="geometry" />
        </mxCell>
        <mxCell id="NQtm4PZffcuobZTqlJQv-56" value="email" style="text;html=1;align=center;verticalAlign=middle;resizable=0;points=[];autosize=1;strokeColor=none;fillColor=none;fontFamily=Helvetica;fontColor=#000000;" parent="1" vertex="1">
          <mxGeometry x="-472" y="634" width="50" height="30" as="geometry" />
        </mxCell>
        <mxCell id="NQtm4PZffcuobZTqlJQv-45" value="" style="verticalLabelPosition=bottom;verticalAlign=top;html=1;shadow=0;dashed=0;strokeWidth=1;shape=mxgraph.android.phone2;strokeColor=#000000;" parent="1" vertex="1">
          <mxGeometry x="-425" y="580" width="200" height="400" as="geometry" />
        </mxCell>
        <mxCell id="NQtm4PZffcuobZTqlJQv-55" value="" style="ellipse;whiteSpace=wrap;html=1;aspect=fixed;labelBackgroundColor=none;fontFamily=Helvetica;" parent="1" vertex="1">
          <mxGeometry x="-498" y="626" width="30" height="30" as="geometry" />
        </mxCell>
        <mxCell id="BAH8xb2DnZmWHSs6ZBWy-1" value="Home Ui" style="text;html=1;align=center;verticalAlign=middle;resizable=0;points=[];autosize=1;strokeColor=none;fillColor=none;fontFamily=Helvetica;fontColor=#000000;" vertex="1" parent="1">
          <mxGeometry x="-320" y="541" width="70" height="30" as="geometry" />
        </mxCell>
        <mxCell id="BAH8xb2DnZmWHSs6ZBWy-2" value="&lt;span style=&quot;text-align: start;&quot;&gt;&lt;font style=&quot;font-size: 14px;&quot;&gt;PushReplacement&lt;/font&gt;&lt;/span&gt;" style="text;html=1;align=center;verticalAlign=middle;resizable=0;points=[];autosize=1;strokeColor=none;fillColor=none;fontFamily=Helvetica;fontColor=#000000;" vertex="1" parent="1">
          <mxGeometry x="-472" y="450" width="140" height="30" as="geometry" />
        </mxCell>
        <mxCell id="BAH8xb2DnZmWHSs6ZBWy-4" value="" style="rounded=0;whiteSpace=wrap;html=1;labelBackgroundColor=none;fontFamily=Helvetica;" vertex="1" parent="1">
          <mxGeometry x="-151.5" y="616" width="120" height="334" as="geometry" />
        </mxCell>
        <mxCell id="BAH8xb2DnZmWHSs6ZBWy-5" value="" style="rounded=0;whiteSpace=wrap;html=1;labelBackgroundColor=none;strokeColor=#6c8ebf;fontFamily=Helvetica;fillColor=#dae8fc;" vertex="1" parent="1">
          <mxGeometry x="-151.5" y="616" width="120" height="60" as="geometry" />
        </mxCell>
        <mxCell id="BAH8xb2DnZmWHSs6ZBWy-6" value="email" style="text;html=1;align=center;verticalAlign=middle;resizable=0;points=[];autosize=1;strokeColor=none;fillColor=none;fontFamily=Helvetica;fontColor=#000000;" vertex="1" parent="1">
          <mxGeometry x="-115.5" y="634" width="50" height="30" as="geometry" />
        </mxCell>
        <mxCell id="BAH8xb2DnZmWHSs6ZBWy-7" value="" style="verticalLabelPosition=bottom;verticalAlign=top;html=1;shadow=0;dashed=0;strokeWidth=1;shape=mxgraph.android.phone2;strokeColor=#000000;" vertex="1" parent="1">
          <mxGeometry x="-68.5" y="580" width="200" height="400" as="geometry" />
        </mxCell>
        <mxCell id="BAH8xb2DnZmWHSs6ZBWy-8" value="" style="ellipse;whiteSpace=wrap;html=1;aspect=fixed;labelBackgroundColor=none;fontFamily=Helvetica;" vertex="1" parent="1">
          <mxGeometry x="-141.5" y="626" width="30" height="30" as="geometry" />
        </mxCell>
        <mxCell id="BAH8xb2DnZmWHSs6ZBWy-9" value="" style="rounded=0;whiteSpace=wrap;html=1;labelBackgroundColor=none;fontFamily=Helvetica;" vertex="1" parent="1">
          <mxGeometry x="207" y="616" width="120" height="334" as="geometry" />
        </mxCell>
        <mxCell id="BAH8xb2DnZmWHSs6ZBWy-10" value="" style="rounded=0;whiteSpace=wrap;html=1;labelBackgroundColor=none;strokeColor=#6c8ebf;fontFamily=Helvetica;fillColor=#dae8fc;" vertex="1" parent="1">
          <mxGeometry x="207" y="616" width="120" height="60" as="geometry" />
        </mxCell>
        <mxCell id="BAH8xb2DnZmWHSs6ZBWy-11" value="email" style="text;html=1;align=center;verticalAlign=middle;resizable=0;points=[];autosize=1;strokeColor=none;fillColor=none;fontFamily=Helvetica;fontColor=#000000;" vertex="1" parent="1">
          <mxGeometry x="243" y="634" width="50" height="30" as="geometry" />
        </mxCell>
        <mxCell id="BAH8xb2DnZmWHSs6ZBWy-12" value="" style="verticalLabelPosition=bottom;verticalAlign=top;html=1;shadow=0;dashed=0;strokeWidth=1;shape=mxgraph.android.phone2;strokeColor=#000000;" vertex="1" parent="1">
          <mxGeometry x="290" y="580" width="200" height="400" as="geometry" />
        </mxCell>
        <mxCell id="BAH8xb2DnZmWHSs6ZBWy-13" value="" style="ellipse;whiteSpace=wrap;html=1;aspect=fixed;labelBackgroundColor=none;fontFamily=Helvetica;" vertex="1" parent="1">
          <mxGeometry x="217" y="626" width="30" height="30" as="geometry" />
        </mxCell>
        <mxCell id="BAH8xb2DnZmWHSs6ZBWy-14" value="LOGOUT&lt;br&gt;" style="rounded=1;html=1;shadow=0;dashed=0;whiteSpace=wrap;fontSize=10;fillColor=#dae8fc;align=center;strokeColor=#6c8ebf;strokeWidth=2;" vertex="1" parent="1">
          <mxGeometry x="-500" y="920" width="60" height="16.88" as="geometry" />
        </mxCell>
        <mxCell id="BAH8xb2DnZmWHSs6ZBWy-15" value="LOGOUT&lt;br&gt;" style="rounded=1;html=1;shadow=0;dashed=0;whiteSpace=wrap;fontSize=10;fillColor=#dae8fc;align=center;strokeColor=#6c8ebf;strokeWidth=2;" vertex="1" parent="1">
          <mxGeometry x="-141.5" y="920" width="60" height="16.88" as="geometry" />
        </mxCell>
        <mxCell id="BAH8xb2DnZmWHSs6ZBWy-21" value="LOGOUT&lt;br&gt;" style="rounded=1;html=1;shadow=0;dashed=0;whiteSpace=wrap;fontSize=10;fillColor=#dae8fc;align=center;strokeColor=#6c8ebf;strokeWidth=2;" vertex="1" parent="1">
          <mxGeometry x="220" y="920" width="60" height="16.88" as="geometry" />
        </mxCell>
        <mxCell id="BAH8xb2DnZmWHSs6ZBWy-24" style="edgeStyle=orthogonalEdgeStyle;rounded=0;jumpStyle=none;orthogonalLoop=1;jettySize=auto;html=1;exitX=0;exitY=0;exitDx=120;exitDy=50;exitPerimeter=0;entryX=0.275;entryY=0.002;entryDx=0;entryDy=0;entryPerimeter=0;fontFamily=Helvetica;fontSize=14;fontColor=#000000;startArrow=none;startFill=0;endArrow=classic;endFill=1;" edge="1" parent="1" source="BAH8xb2DnZmWHSs6ZBWy-22" target="NQtm4PZffcuobZTqlJQv-45">
          <mxGeometry relative="1" as="geometry" />
        </mxCell>
        <mxCell id="BAH8xb2DnZmWHSs6ZBWy-22" value="" style="shape=cube;whiteSpace=wrap;html=1;boundedLbl=1;backgroundOutline=1;darkOpacity=0.05;darkOpacity2=0.1;labelBackgroundColor=none;fontFamily=Helvetica;fontSize=14;" vertex="1" parent="1">
          <mxGeometry x="-640" y="491" width="120" height="80" as="geometry" />
        </mxCell>
        <mxCell id="BAH8xb2DnZmWHSs6ZBWy-23" value="API" style="text;html=1;align=center;verticalAlign=middle;resizable=0;points=[];autosize=1;strokeColor=none;fillColor=none;fontSize=14;fontFamily=Helvetica;fontColor=#000000;" vertex="1" parent="1">
          <mxGeometry x="-590" y="530" width="50" height="30" as="geometry" />
        </mxCell>
        <mxCell id="BAH8xb2DnZmWHSs6ZBWy-28" style="edgeStyle=orthogonalEdgeStyle;rounded=0;jumpStyle=none;orthogonalLoop=1;jettySize=auto;html=1;exitX=0.5;exitY=0;exitDx=0;exitDy=0;exitPerimeter=0;entryX=0.998;entryY=0.48;entryDx=0;entryDy=0;entryPerimeter=0;fontFamily=Helvetica;fontSize=14;fontColor=#000000;startArrow=none;startFill=0;endArrow=classic;endFill=1;" edge="1" parent="1" source="BAH8xb2DnZmWHSs6ZBWy-25" target="BAH8xb2DnZmWHSs6ZBWy-7">
          <mxGeometry relative="1" as="geometry" />
        </mxCell>
        <mxCell id="BAH8xb2DnZmWHSs6ZBWy-25" value="" style="shape=cylinder3;whiteSpace=wrap;html=1;boundedLbl=1;backgroundOutline=1;size=15;strokeColor=#d6b656;fillColor=#FFFF33;" vertex="1" parent="1">
          <mxGeometry x="-35" y="1070" width="60" height="80" as="geometry" />
        </mxCell>
      </root>
    </mxGraphModel>
  </diagram>
</mxfile>
